<svg width="273" height="238" viewBox="0 0 273 238" fill="none" xmlns="http://www.w3.org/2000/svg">
<path d="M241.379 68.0466L209.843 189.001L249.691 77.7443L241.379 68.0466ZM233.029 58.3058L201.232 179.314L241.379 68.0466L233.029 58.3058ZM76.7619 218.85L85.4862 228.265L218.414 198.644L76.7619 218.85ZM224.642 48.5216L192.582 169.584L233.029 58.3058L224.642 48.5216ZM67.9986 209.393L76.7619 218.85L209.843 189.001L67.9986 209.393ZM209.843 189.001L218.414 198.644L249.691 77.7443L209.843 189.001ZM216.217 38.6937L183.893 159.808L224.642 48.5216L216.217 38.6937ZM59.196 199.894L67.9986 209.393L201.232 179.314L59.196 199.894Z" fill="#63D446" fill-opacity="0.74"/>
<path d="M157.584 130.213L190.716 8.94507L59.1207 41.5276L157.584 130.213Z" fill="#77ED59" fill-opacity="0.76"/>
<path d="M201.231 179.314L209.842 189.001L241.378 68.0469L201.231 179.314ZM207.755 28.822L175.163 149.989L216.217 38.6939L207.755 28.822ZM209.842 189.001L76.7614 218.85L218.414 198.644L209.842 189.001ZM50.3534 190.352L59.1955 199.894L192.581 169.584L50.3534 190.352Z" fill="#63D446" fill-opacity="0.74"/>
<path d="M59.1213 41.5277L23.5877 161.467L157.584 130.213L59.1213 41.5277Z" fill="#77ED59" fill-opacity="0.76"/>
<path d="M192.582 169.583L201.231 179.314L233.028 58.3058L192.582 169.583ZM199.255 18.9055L166.394 140.123L207.755 28.8217L199.255 18.9055ZM201.231 179.314L67.9981 209.393L209.842 189.001L201.231 179.314ZM41.4716 180.767L50.3535 190.352L183.892 159.808L41.4716 180.767ZM183.892 159.808L192.582 169.583L224.641 48.5216L183.892 159.808ZM190.716 8.94477L157.584 130.213L199.255 18.9055L190.716 8.94477ZM192.582 169.583L59.1956 199.894L201.231 179.314L192.582 169.583ZM32.5497 171.139L41.4716 180.767L175.163 149.988L32.5497 171.139ZM175.163 149.988L183.892 159.808L216.217 38.6936L175.163 149.988ZM183.892 159.808L50.3535 190.352L192.582 169.583L183.892 159.808ZM23.5874 161.467L32.5497 171.139L166.394 140.123L23.5874 161.467ZM166.394 140.123L175.163 149.988L207.755 28.8217L166.394 140.123ZM175.163 149.988L41.4716 180.767L183.892 159.808L175.163 149.988ZM157.584 130.213L166.394 140.123L199.255 18.9055L157.584 130.213ZM166.394 140.123L32.5497 171.139L175.163 149.988L166.394 140.123ZM157.584 130.213L23.5874 161.467L166.394 140.123L157.584 130.213Z" fill="#63D446" fill-opacity="0.74"/>
</svg>
