<svg xmlns="http://www.w3.org/2000/svg" width="57" height="52"
     viewBox="0 0 57 52" fill="none">
    <path
            d="M52.5558 47.6609H53.0558V47.1609V19.9936C53.0558 19.1805 53.7147 18.5215 54.5279 18.5215C55.3409 18.5215 56 19.1804 56 19.9936V49.133C56 49.946 55.3411 50.6051 54.5279 50.6051H2.47208C1.65889 50.6051 1 49.946 1 49.133V19.9936C1 19.1803 1.65885 18.5215 2.47208 18.5215C3.28527 18.5215 3.94416 19.1805 3.94416 19.9936V47.1609V47.6609H4.44416H52.5558Z"
            fill="#9FA1A5" stroke="black"></path>
    <path
            d="M38.0504 27.7421L38.0505 27.7421C38.6253 28.3167 38.6254 29.2488 38.0504 29.8238L38.404 30.1773L38.0504 29.8238L29.5383 38.3362C29.2617 38.6125 28.8873 38.7675 28.497 38.7675C28.1064 38.7675 27.7321 38.6125 27.4559 38.3363L18.9502 29.8298L18.9502 29.8298C18.3753 29.2549 18.3753 28.323 18.9502 27.7481C19.5253 27.173 20.4572 27.1732 21.0322 27.7481L26.1717 32.8879L27.0252 33.7414L27.0252 32.5344L27.0263 2.86663V2.86661C27.0263 2.05364 27.6854 1.39453 28.4984 1.39453C29.3115 1.39453 29.9704 2.05359 29.9704 2.86659C29.9704 2.8666 29.9704 2.86661 29.9704 2.86661L29.9694 32.5341L29.9693 33.7412L30.8229 32.8876L35.9685 27.7421C36.5434 27.1671 37.4753 27.167 38.0504 27.7421Z"
            fill="#9FA1A5" stroke="black"></path>
</svg>
